<svg xmlns="http://www.w3.org/2000/svg" xmlns:xlink="http://www.w3.org/1999/xlink" width="400" zoomAndPan="magnify" viewBox="0 0 300 187.499995" height="250" preserveAspectRatio="xMidYMid meet" version="1.0"><defs><clipPath id="745794e971"><path d="M 211 86 L 215.449219 86 L 215.449219 91 L 211 91 Z M 211 86 " clip-rule="nonzero"/></clipPath><clipPath id="0e3640d983"><path d="M 101 76.859375 L 118 76.859375 L 118 93 L 101 93 Z M 101 76.859375 " clip-rule="nonzero"/></clipPath><clipPath id="4251b59516"><path d="M 84.550781 76.859375 L 101 76.859375 L 101 93 L 84.550781 93 Z M 84.550781 76.859375 " clip-rule="nonzero"/></clipPath><clipPath id="f771caee40"><path d="M 84.550781 94 L 101 94 L 101 109.769531 L 84.550781 109.769531 Z M 84.550781 94 " clip-rule="nonzero"/></clipPath><clipPath id="6f9b9fc6ed"><path d="M 101 94 L 118 94 L 118 109.769531 L 101 109.769531 Z M 101 94 " clip-rule="nonzero"/></clipPath></defs><path fill="#333357" d="M 137.179688 88.378906 C 135.613281 90.023438 135.613281 90.023438 135.613281 90.023438 C 134.554688 88.980469 133.375 88.378906 131.808594 88.378906 C 129.089844 88.378906 127.042969 90.5 127.042969 93.472656 C 127.042969 96.445312 129.089844 98.5625 131.808594 98.5625 C 133.375 98.5625 134.714844 97.898438 135.707031 96.917969 C 137.179688 98.5625 137.179688 98.5625 137.179688 98.5625 C 135.898438 100.019531 134.078125 100.777344 131.933594 100.777344 C 127.457031 100.777344 124.546875 97.613281 124.546875 93.472656 C 124.546875 89.234375 127.457031 86.070312 131.933594 86.070312 C 134.046875 86.070312 135.898438 86.925781 137.179688 88.378906 Z M 137.179688 88.378906 " fill-opacity="1" fill-rule="nonzero"/><path fill="#333357" d="M 154.667969 93.472656 C 154.667969 97.613281 151.472656 100.777344 147.1875 100.777344 C 142.804688 100.777344 139.609375 97.613281 139.609375 93.472656 C 139.609375 89.234375 142.804688 86.070312 147.1875 86.070312 C 151.4375 86.070312 154.667969 89.234375 154.667969 93.472656 Z M 142.132812 93.472656 C 142.132812 96.445312 144.277344 98.5625 147.1875 98.5625 C 150 98.5625 152.140625 96.445312 152.140625 93.472656 C 152.140625 90.5 150 88.378906 147.1875 88.378906 C 144.246094 88.378906 142.132812 90.5 142.132812 93.472656 Z M 142.132812 93.472656 " fill-opacity="1" fill-rule="nonzero"/><path fill="#333357" d="M 165.15625 100.492188 L 162.246094 100.492188 L 156.203125 86.453125 L 158.921875 86.453125 L 163.683594 98.089844 L 168.449219 86.453125 L 171.070312 86.453125 Z M 165.15625 100.492188 " fill-opacity="1" fill-rule="nonzero"/><path fill="#333357" d="M 186.417969 93.378906 C 186.417969 93.757812 186.417969 94.042969 186.417969 94.324219 C 175.226562 94.324219 175.226562 94.324219 175.226562 94.324219 C 175.515625 97.203125 177.5625 98.660156 179.992188 98.660156 C 181.75 98.660156 183.1875 98.089844 184.46875 97.015625 C 185.746094 98.660156 185.746094 98.660156 185.746094 98.660156 C 183.988281 100.304688 182.070312 100.777344 179.925781 100.777344 C 175.644531 100.777344 172.636719 97.898438 172.636719 93.472656 C 172.636719 89.140625 175.644531 86.070312 179.734375 86.070312 C 183.605469 86.070312 186.417969 89.140625 186.417969 93.378906 Z M 175.257812 92.300781 C 184.019531 92.300781 184.019531 92.300781 184.019531 92.300781 C 183.730469 89.898438 182.070312 88.253906 179.734375 88.253906 C 177.210938 88.285156 175.644531 89.898438 175.257812 92.300781 Z M 175.257812 92.300781 " fill-opacity="1" fill-rule="nonzero"/><path fill="#333357" d="M 204.707031 93.472656 C 204.707031 97.613281 201.511719 100.777344 197.226562 100.777344 C 192.84375 100.777344 189.648438 97.613281 189.648438 93.472656 C 189.648438 89.234375 192.84375 86.070312 197.226562 86.070312 C 201.511719 86.070312 204.707031 89.234375 204.707031 93.472656 Z M 192.171875 93.472656 C 192.171875 96.445312 194.316406 98.5625 197.226562 98.5625 C 200.039062 98.5625 202.179688 96.445312 202.179688 93.472656 C 202.179688 90.5 200.039062 88.378906 197.226562 88.378906 C 194.316406 88.378906 192.171875 90.5 192.171875 93.472656 Z M 192.171875 93.472656 " fill-opacity="1" fill-rule="nonzero"/><path fill="#333357" d="M 210.527344 86.484375 L 207.648438 86.484375 L 207.648438 87.019531 L 208.800781 87.019531 L 208.800781 90.53125 L 209.40625 90.53125 L 209.40625 87.019531 L 210.527344 87.019531 L 210.527344 86.484375 " fill-opacity="1" fill-rule="nonzero"/><g clip-path="url(#745794e971)"><path fill="#333357" d="M 215.449219 86.484375 L 214.8125 86.484375 L 213.628906 89.011719 L 212.445312 86.484375 L 211.804688 86.484375 L 211.804688 90.53125 L 212.445312 90.53125 L 212.445312 87.8125 L 213.402344 89.804688 L 213.882812 89.804688 L 214.8125 87.8125 L 214.8125 90.53125 L 215.449219 90.53125 L 215.449219 86.484375 " fill-opacity="1" fill-rule="nonzero"/></g><g clip-path="url(#0e3640d983)"><path fill="#00adff" d="M 112.71875 81.675781 C 109.871094 78.859375 106.261719 77.28125 102.519531 76.933594 C 102.070312 76.898438 101.816406 77.4375 102.136719 77.753906 L 108.113281 83.667969 C 108.144531 83.699219 108.113281 83.761719 108.050781 83.730469 C 106.355469 82.5 104.375 81.800781 102.359375 81.613281 C 102.039062 81.582031 101.878906 81.960938 102.101562 82.183594 L 106.164062 86.199219 C 106.195312 86.230469 106.164062 86.292969 106.101562 86.261719 C 104.980469 85.503906 103.703125 85.058594 102.390625 84.933594 C 102.167969 84.902344 102.039062 85.1875 102.199219 85.3125 L 109.105469 92.144531 C 109.265625 92.300781 109.519531 92.175781 109.488281 91.953125 C 109.359375 90.65625 108.914062 89.425781 108.144531 88.316406 C 108.113281 88.285156 108.179688 88.222656 108.210938 88.253906 L 112.109375 92.113281 C 112.335938 92.332031 112.71875 92.144531 112.6875 91.859375 C 112.496094 89.867188 111.792969 87.9375 110.542969 86.230469 C 110.511719 86.199219 110.578125 86.136719 110.609375 86.167969 L 116.652344 92.113281 C 116.972656 92.429688 117.515625 92.175781 117.484375 91.734375 C 117.164062 88.0625 115.5625 84.492188 112.71875 81.675781 " fill-opacity="1" fill-rule="nonzero"/></g><g clip-path="url(#4251b59516)"><path fill="#f05245" d="M 89.34375 81.675781 C 92.191406 78.859375 95.804688 77.28125 99.511719 76.933594 C 99.960938 76.898438 100.214844 77.4375 99.898438 77.753906 L 93.949219 83.667969 C 93.917969 83.699219 93.949219 83.761719 94.015625 83.730469 C 95.707031 82.5 97.691406 81.800781 99.707031 81.613281 C 100.023438 81.582031 100.183594 81.960938 99.960938 82.183594 L 95.867188 86.199219 C 95.835938 86.230469 95.867188 86.292969 95.933594 86.261719 C 97.050781 85.503906 98.332031 85.058594 99.640625 84.933594 C 99.863281 84.902344 99.992188 85.1875 99.832031 85.3125 L 92.894531 92.175781 C 92.734375 92.332031 92.480469 92.207031 92.511719 91.984375 C 92.640625 90.6875 93.085938 89.457031 93.855469 88.347656 C 93.886719 88.316406 93.820312 88.253906 93.789062 88.285156 L 89.855469 92.144531 C 89.632812 92.367188 89.25 92.175781 89.28125 91.890625 C 89.472656 89.898438 90.175781 87.96875 91.425781 86.261719 C 91.457031 86.230469 91.390625 86.167969 91.359375 86.199219 L 85.378906 92.113281 C 85.0625 92.429688 84.515625 92.175781 84.550781 91.734375 C 84.902344 88.0625 86.5 84.492188 89.34375 81.675781 " fill-opacity="1" fill-rule="nonzero"/></g><g clip-path="url(#f771caee40)"><path fill="#1cebcf" d="M 89.34375 104.984375 C 92.191406 107.796875 95.804688 109.378906 99.546875 109.726562 C 99.992188 109.757812 100.25 109.222656 99.929688 108.90625 L 93.949219 102.992188 C 93.917969 102.960938 93.949219 102.898438 94.015625 102.929688 C 95.707031 104.160156 97.691406 104.859375 99.707031 105.046875 C 100.023438 105.078125 100.183594 104.699219 99.960938 104.476562 L 95.867188 100.429688 C 95.835938 100.398438 95.867188 100.335938 95.933594 100.367188 C 97.050781 101.125 98.332031 101.570312 99.640625 101.695312 C 99.863281 101.726562 99.992188 101.441406 99.832031 101.316406 L 92.894531 94.453125 C 92.734375 94.292969 92.480469 94.421875 92.511719 94.640625 C 92.640625 95.9375 93.085938 97.171875 93.855469 98.28125 C 93.886719 98.3125 93.820312 98.375 93.789062 98.34375 L 89.855469 94.484375 C 89.632812 94.261719 89.25 94.453125 89.28125 94.738281 C 89.472656 96.730469 90.175781 98.660156 91.425781 100.367188 C 91.457031 100.398438 91.390625 100.460938 91.359375 100.429688 L 85.378906 94.515625 C 85.0625 94.199219 84.515625 94.453125 84.550781 94.894531 C 84.902344 98.59375 86.5 102.167969 89.34375 104.984375 " fill-opacity="1" fill-rule="nonzero"/></g><g clip-path="url(#6f9b9fc6ed)"><path fill="#ffe300" d="M 112.71875 104.984375 C 109.871094 107.796875 106.261719 109.378906 102.519531 109.726562 C 102.070312 109.757812 101.816406 109.222656 102.136719 108.90625 L 108.113281 102.992188 C 108.144531 102.960938 108.113281 102.898438 108.050781 102.929688 C 106.355469 104.128906 104.375 104.859375 102.359375 105.015625 C 102.039062 105.046875 101.878906 104.667969 102.101562 104.445312 L 106.164062 100.429688 C 106.195312 100.398438 106.164062 100.335938 106.101562 100.367188 C 104.980469 101.125 103.703125 101.570312 102.390625 101.695312 C 102.167969 101.726562 102.039062 101.441406 102.199219 101.316406 L 109.105469 94.484375 C 109.265625 94.324219 109.519531 94.453125 109.488281 94.675781 C 109.359375 95.96875 108.914062 97.203125 108.144531 98.3125 C 108.113281 98.34375 108.179688 98.40625 108.210938 98.375 L 112.109375 94.515625 C 112.335938 94.292969 112.71875 94.484375 112.6875 94.769531 C 112.496094 96.761719 111.792969 98.691406 110.542969 100.398438 C 110.511719 100.429688 110.578125 100.492188 110.609375 100.460938 L 116.585938 94.546875 C 116.90625 94.230469 117.449219 94.484375 117.417969 94.925781 C 117.164062 98.59375 115.5625 102.167969 112.71875 104.984375 " fill-opacity="1" fill-rule="nonzero"/></g></svg>