<svg xmlns="http://www.w3.org/2000/svg" xmlns:xlink="http://www.w3.org/1999/xlink" width="400" zoomAndPan="magnify" viewBox="0 0 300 187.499995" height="250" preserveAspectRatio="xMidYMid meet" version="1.0"><defs><clipPath id="b6ae67f536"><path d="M 37.800781 39.203125 L 262.199219 39.203125 L 262.199219 147.660156 L 37.800781 147.660156 Z M 37.800781 39.203125 " clip-rule="nonzero"/></clipPath></defs><g clip-path="url(#b6ae67f536)"><rect x="-30" width="360" fill="#ffffff" y="-18.749999" height="224.999994" fill-opacity="1"/></g><path fill="#243267" d="M 45.628906 48.949219 L 45.628906 53.4375 L 249.992188 53.4375 L 249.992188 48.949219 L 45.628906 48.949219 " fill-opacity="1" fill-rule="nonzero"/><path fill="#243267" d="M 45.628906 137.78125 L 249.992188 137.78125 L 249.992188 133.289062 L 45.628906 133.289062 L 45.628906 137.78125 " fill-opacity="1" fill-rule="nonzero"/><path fill="#243267" d="M 52.816406 71.394531 L 57.808594 71.394531 C 60.703125 71.394531 63.023438 72.136719 64.714844 73.605469 C 66.410156 75.078125 67.234375 77.035156 67.234375 79.59375 C 67.234375 82.058594 66.414062 83.992188 64.730469 85.507812 C 63.050781 87.011719 60.785156 87.777344 57.984375 87.777344 L 52.816406 87.777344 Z M 71.703125 72.957031 C 70.433594 70.988281 68.628906 69.441406 66.339844 68.355469 C 64.066406 67.277344 61.4375 66.730469 58.535156 66.730469 L 46.609375 66.730469 L 46.609375 92.4375 L 58.222656 92.4375 C 61.214844 92.4375 63.910156 91.90625 66.234375 90.855469 C 68.578125 89.792969 70.414062 88.273438 71.691406 86.332031 C 72.96875 84.390625 73.621094 82.132812 73.621094 79.628906 C 73.621094 77.171875 72.972656 74.929688 71.703125 72.957031 " fill-opacity="1" fill-rule="nonzero"/><path fill="#243267" d="M 82.25 92.4375 L 88.460938 92.4375 L 88.460938 66.730469 L 82.25 66.730469 L 82.25 92.4375 " fill-opacity="1" fill-rule="nonzero"/><path fill="#243267" d="M 110.207031 77.34375 C 106.972656 76 105.992188 75.539062 105.726562 75.378906 C 104.488281 74.679688 103.863281 73.941406 103.863281 73.1875 C 103.863281 72.570312 104.160156 72.085938 104.773438 71.707031 C 105.449219 71.285156 106.417969 71.074219 107.660156 71.074219 C 109.765625 71.074219 112.230469 71.835938 114.988281 73.34375 L 115.664062 73.710938 L 115.664062 68.394531 L 115.40625 68.269531 C 112.886719 67.035156 110.226562 66.410156 107.503906 66.410156 C 104.605469 66.410156 102.234375 67.066406 100.449219 68.351562 C 98.621094 69.675781 97.691406 71.476562 97.691406 73.703125 C 97.691406 75.375 98.269531 76.863281 99.40625 78.125 C 100.515625 79.355469 102.195312 80.4375 104.398438 81.34375 C 106.195312 82.128906 107.683594 82.8125 108.820312 83.371094 C 110.050781 84.015625 110.652344 84.796875 110.652344 85.769531 C 110.652344 86.445312 110.328125 86.980469 109.667969 87.40625 C 108.949219 87.863281 107.976562 88.097656 106.777344 88.097656 C 104.300781 88.097656 101.609375 87.015625 98.777344 84.886719 L 98.046875 84.335938 L 98.046875 90.246094 L 98.285156 90.378906 C 99.875 91.242188 101.335938 91.859375 102.625 92.21875 C 103.921875 92.574219 105.484375 92.757812 107.265625 92.757812 C 110.050781 92.757812 112.355469 92.066406 114.125 90.703125 C 115.925781 89.308594 116.84375 87.453125 116.84375 85.183594 C 116.84375 83.433594 116.304688 81.914062 115.242188 80.664062 C 114.207031 79.441406 112.515625 78.324219 110.207031 77.34375 " fill-opacity="1" fill-rule="nonzero"/><path fill="#243267" d="M 124.625 71.394531 L 134.351562 71.394531 L 134.351562 92.4375 L 140.558594 92.4375 L 140.558594 71.394531 L 150.285156 71.394531 L 150.285156 66.730469 L 124.625 66.730469 L 124.625 71.394531 " fill-opacity="1" fill-rule="nonzero"/><path fill="#243267" d="M 165.9375 81.648438 L 177.820312 81.648438 L 177.820312 76.988281 L 165.9375 76.988281 L 165.9375 71.394531 L 178.347656 71.394531 L 178.347656 66.730469 L 159.726562 66.730469 L 159.726562 92.4375 L 178.625 92.4375 L 178.625 87.777344 L 165.9375 87.777344 L 165.9375 81.648438 " fill-opacity="1" fill-rule="nonzero"/><path fill="#243267" d="M 207.480469 87.136719 C 206.160156 87.515625 204.757812 87.707031 203.304688 87.707031 C 201.417969 87.707031 199.699219 87.359375 198.199219 86.671875 C 196.71875 85.996094 195.554688 85.027344 194.746094 83.796875 C 193.9375 82.566406 193.527344 81.152344 193.527344 79.59375 C 193.527344 78.070312 193.941406 76.667969 194.753906 75.425781 C 195.574219 74.179688 196.738281 73.199219 198.222656 72.511719 C 199.722656 71.816406 201.429688 71.464844 203.304688 71.464844 C 204.8125 71.464844 206.277344 71.65625 207.664062 72.035156 C 209.054688 72.414062 210.597656 73.039062 212.25 73.898438 L 212.917969 74.242188 L 212.917969 68.683594 L 212.644531 68.5625 C 210.898438 67.785156 209.246094 67.226562 207.730469 66.902344 C 206.214844 66.578125 204.648438 66.410156 203.066406 66.410156 C 200.074219 66.410156 197.34375 66.96875 194.945312 68.070312 C 192.53125 69.175781 190.609375 70.777344 189.230469 72.824219 C 187.84375 74.878906 187.140625 77.230469 187.140625 79.808594 C 187.140625 82.21875 187.824219 84.46875 189.167969 86.492188 C 190.511719 88.515625 192.378906 90.082031 194.722656 91.15625 C 197.046875 92.21875 199.714844 92.757812 202.65625 92.757812 C 204.667969 92.757812 206.460938 92.574219 207.976562 92.214844 C 209.492188 91.851562 211.171875 91.238281 212.96875 90.390625 L 213.230469 90.265625 L 213.230469 84.734375 L 212.570312 85.054688 C 210.527344 86.054688 208.816406 86.757812 207.480469 87.136719 " fill-opacity="1" fill-rule="nonzero"/><path fill="#243267" d="M 242.808594 66.730469 L 242.808594 77.164062 L 229.511719 77.164062 L 229.511719 66.730469 L 223.300781 66.730469 L 223.300781 92.4375 L 229.511719 92.4375 L 229.511719 81.96875 L 242.808594 81.96875 L 242.808594 92.4375 L 249.019531 92.4375 L 249.019531 66.730469 L 242.808594 66.730469 " fill-opacity="1" fill-rule="nonzero"/><path fill="#192c66" d="M 60.46875 115.75 C 59.554688 116.011719 58.578125 116.144531 57.574219 116.144531 C 56.269531 116.144531 55.082031 115.902344 54.046875 115.429688 C 53.027344 114.964844 52.230469 114.300781 51.675781 113.457031 C 51.125 112.617188 50.84375 111.648438 50.84375 110.582031 C 50.84375 109.539062 51.125 108.582031 51.683594 107.730469 C 52.246094 106.878906 53.042969 106.207031 54.0625 105.734375 C 55.097656 105.253906 56.277344 105.007812 57.574219 105.007812 C 58.621094 105.007812 59.636719 105.140625 60.597656 105.40625 C 61.570312 105.667969 62.644531 106.105469 63.792969 106.703125 L 64.460938 107.050781 L 64.460938 102.832031 L 64.191406 102.710938 C 62.953125 102.160156 61.785156 101.765625 60.710938 101.535156 C 59.640625 101.304688 58.527344 101.1875 57.40625 101.1875 C 55.285156 101.1875 53.347656 101.582031 51.648438 102.363281 C 49.929688 103.152344 48.558594 104.292969 47.574219 105.753906 C 46.585938 107.21875 46.085938 108.894531 46.085938 110.730469 C 46.085938 112.453125 46.574219 114.058594 47.53125 115.503906 C 48.488281 116.945312 49.820312 118.0625 51.488281 118.824219 C 53.140625 119.582031 55.035156 119.964844 57.117188 119.964844 C 58.542969 119.964844 59.8125 119.832031 60.886719 119.578125 C 61.960938 119.320312 63.148438 118.886719 64.417969 118.285156 L 64.679688 118.164062 L 64.679688 113.972656 L 64.023438 114.292969 C 62.59375 114.992188 61.398438 115.484375 60.46875 115.75 " fill-opacity="1" fill-rule="nonzero"/><path fill="#192c66" d="M 89.8125 110.582031 C 89.8125 112.230469 89.242188 113.535156 88.0625 114.574219 C 86.882812 115.617188 85.347656 116.144531 83.496094 116.144531 C 82.269531 116.144531 81.160156 115.902344 80.195312 115.429688 C 79.246094 114.960938 78.496094 114.296875 77.964844 113.453125 C 77.4375 112.609375 77.167969 111.644531 77.167969 110.582031 C 77.167969 109.511719 77.425781 108.539062 77.941406 107.699219 C 78.453125 106.863281 79.195312 106.199219 80.152344 105.730469 C 81.125 105.25 82.242188 105.007812 83.46875 105.007812 C 84.699219 105.007812 85.8125 105.25 86.789062 105.722656 C 87.746094 106.1875 88.496094 106.855469 89.023438 107.703125 C 89.546875 108.550781 89.8125 109.519531 89.8125 110.582031 Z M 89.066406 102.347656 C 87.421875 101.578125 85.546875 101.1875 83.496094 101.1875 C 81.363281 101.1875 79.441406 101.597656 77.789062 102.398438 C 76.125 103.210938 74.796875 104.367188 73.847656 105.835938 C 72.894531 107.308594 72.410156 108.90625 72.410156 110.582031 C 72.410156 112.320312 72.894531 113.929688 73.851562 115.367188 C 74.800781 116.796875 76.144531 117.933594 77.839844 118.746094 C 79.523438 119.554688 81.417969 119.964844 83.46875 119.964844 C 85.546875 119.964844 87.445312 119.5625 89.113281 118.765625 C 90.792969 117.964844 92.132812 116.820312 93.097656 115.367188 C 94.066406 113.902344 94.558594 112.292969 94.558594 110.582031 C 94.558594 108.828125 94.054688 107.191406 93.0625 105.71875 C 92.074219 104.257812 90.730469 103.121094 89.066406 102.347656 " fill-opacity="1" fill-rule="nonzero"/><path fill="#192c66" d="M 118.144531 112.863281 L 107.371094 101.414062 L 103.453125 101.414062 L 103.453125 119.738281 L 108.003906 119.738281 L 108.003906 108.09375 L 118.84375 119.738281 L 122.695312 119.738281 L 122.695312 101.414062 L 118.144531 101.414062 L 118.144531 112.863281 " fill-opacity="1" fill-rule="nonzero"/><path fill="#192c66" d="M 131.382812 104.960938 L 138.210938 104.960938 L 138.210938 119.738281 L 142.847656 119.738281 L 142.847656 104.960938 L 149.675781 104.960938 L 149.675781 101.414062 L 131.382812 101.414062 L 131.382812 104.960938 " fill-opacity="1" fill-rule="nonzero"/><path fill="#192c66" d="M 163.34375 104.910156 L 165.195312 104.910156 C 166.113281 104.910156 166.816406 105.078125 167.285156 105.414062 C 167.710938 105.722656 167.917969 106.183594 167.917969 106.832031 C 167.917969 107.453125 167.703125 107.925781 167.261719 108.277344 C 166.789062 108.652344 166.117188 108.839844 165.253906 108.839844 L 163.34375 108.839844 Z M 172.671875 114.6875 C 171.941406 113.425781 171.339844 112.546875 170.832031 112.003906 C 170.535156 111.679688 170.210938 111.394531 169.859375 111.148438 C 170.644531 110.742188 171.273438 110.234375 171.734375 109.632812 C 172.359375 108.820312 172.675781 107.855469 172.675781 106.769531 C 172.675781 105.175781 172.042969 103.863281 170.796875 102.871094 C 169.578125 101.902344 167.996094 101.414062 166.09375 101.414062 L 158.707031 101.414062 L 158.707031 119.738281 L 163.34375 119.738281 L 163.34375 112.386719 L 164.234375 112.386719 C 164.75 112.386719 165.195312 112.5 165.585938 112.730469 C 165.988281 112.96875 166.429688 113.390625 166.886719 113.984375 C 167.367188 114.609375 168.144531 115.851562 169.191406 117.679688 C 169.695312 118.542969 170.082031 119.15625 170.378906 119.554688 L 170.515625 119.738281 L 175.78125 119.738281 L 175.261719 119.011719 C 174.707031 118.230469 173.835938 116.777344 172.671875 114.6875 " fill-opacity="1" fill-rule="nonzero"/><path fill="#192c66" d="M 199 110.582031 C 199 112.230469 198.429688 113.535156 197.25 114.574219 C 196.070312 115.617188 194.535156 116.144531 192.683594 116.144531 C 191.457031 116.144531 190.347656 115.902344 189.382812 115.429688 C 188.433594 114.960938 187.679688 114.296875 187.152344 113.453125 C 186.621094 112.609375 186.355469 111.644531 186.355469 110.582031 C 186.355469 109.511719 186.613281 108.539062 187.128906 107.699219 C 187.640625 106.863281 188.382812 106.199219 189.339844 105.730469 C 190.3125 105.25 191.429688 105.007812 192.65625 105.007812 C 193.882812 105.007812 195 105.25 195.976562 105.722656 C 196.933594 106.1875 197.683594 106.855469 198.210938 107.703125 C 198.734375 108.550781 199 109.519531 199 110.582031 Z M 198.253906 102.347656 C 196.609375 101.578125 194.734375 101.1875 192.683594 101.1875 C 190.550781 101.1875 188.628906 101.597656 186.976562 102.398438 C 185.3125 103.210938 183.984375 104.367188 183.035156 105.835938 C 182.082031 107.308594 181.597656 108.90625 181.597656 110.582031 C 181.597656 112.320312 182.082031 113.929688 183.035156 115.367188 C 183.988281 116.796875 185.332031 117.933594 187.027344 118.746094 C 188.710938 119.554688 190.605469 119.964844 192.65625 119.964844 C 194.734375 119.964844 196.632812 119.5625 198.300781 118.765625 C 199.976562 117.964844 201.320312 116.820312 202.285156 115.367188 C 203.253906 113.902344 203.746094 112.292969 203.746094 110.582031 C 203.746094 108.828125 203.242188 107.191406 202.246094 105.71875 C 201.261719 104.257812 199.917969 103.121094 198.253906 102.347656 " fill-opacity="1" fill-rule="nonzero"/><path fill="#192c66" d="M 217.648438 101.414062 L 213.015625 101.414062 L 213.015625 119.738281 L 226.984375 119.738281 L 226.984375 116.191406 L 217.648438 116.191406 L 217.648438 101.414062 " fill-opacity="1" fill-rule="nonzero"/><path fill="#192c66" d="M 247.953125 111.246094 C 247.210938 110.371094 246.007812 109.574219 244.363281 108.875 C 241.988281 107.890625 241.390625 107.597656 241.234375 107.503906 C 240.410156 107.039062 239.996094 106.558594 239.996094 106.082031 C 239.996094 105.695312 240.175781 105.402344 240.570312 105.160156 C 241.023438 104.878906 241.679688 104.734375 242.523438 104.734375 C 243.980469 104.734375 245.691406 105.265625 247.605469 106.3125 L 248.285156 106.679688 L 248.285156 102.632812 L 248.027344 102.507812 C 246.238281 101.632812 244.347656 101.1875 242.414062 101.1875 C 240.351562 101.1875 238.660156 101.65625 237.382812 102.578125 C 236.058594 103.53125 235.386719 104.832031 235.386719 106.445312 C 235.386719 107.652344 235.804688 108.730469 236.628906 109.644531 C 237.417969 110.523438 238.617188 111.292969 240.179688 111.9375 C 241.445312 112.488281 242.492188 112.96875 243.277344 113.355469 C 244.09375 113.78125 244.488281 114.292969 244.488281 114.917969 C 244.488281 115.351562 244.289062 115.679688 243.863281 115.953125 C 243.378906 116.261719 242.71875 116.417969 241.90625 116.417969 C 240.195312 116.417969 238.335938 115.667969 236.367188 114.191406 L 235.636719 113.640625 L 235.636719 118.144531 L 235.875 118.273438 C 237.003906 118.886719 238.039062 119.328125 238.953125 119.578125 C 239.875 119.835938 240.984375 119.964844 242.25 119.964844 C 244.234375 119.964844 245.882812 119.46875 247.148438 118.492188 C 248.449219 117.484375 249.109375 116.144531 249.109375 114.507812 C 249.109375 113.246094 248.722656 112.148438 247.953125 111.246094 " fill-opacity="1" fill-rule="nonzero"/><path fill="#243267" d="M 249.441406 101.539062 L 252.683594 101.539062 L 252.683594 102.035156 L 251.332031 102.035156 L 251.332031 105.429688 L 250.773438 105.429688 L 250.773438 102.035156 L 249.441406 102.035156 L 249.441406 101.539062 " fill-opacity="1" fill-rule="nonzero"/><path fill="#243267" d="M 256.636719 101.542969 L 257.15625 101.542969 L 257.15625 105.429688 L 256.597656 105.429688 L 256.597656 102.40625 L 255.40625 103.90625 L 255.300781 103.90625 L 254.09375 102.40625 L 254.09375 105.429688 L 253.539062 105.429688 L 253.539062 101.542969 L 254.066406 101.542969 L 255.355469 103.140625 L 256.636719 101.542969 " fill-opacity="1" fill-rule="nonzero"/></svg>