<svg xmlns="http://www.w3.org/2000/svg" xmlns:xlink="http://www.w3.org/1999/xlink" width="400" zoomAndPan="magnify" viewBox="0 0 300 187.499995" height="250" preserveAspectRatio="xMidYMid meet" version="1.0"><path fill="#9482d9" d="M 115.195312 76.238281 L 92.621094 76.238281 C 92.496094 76.238281 92.390625 76.28125 92.300781 76.371094 C 92.210938 76.460938 92.167969 76.566406 92.167969 76.691406 L 92.167969 84.203125 C 92.167969 84.328125 92.210938 84.433594 92.300781 84.523438 C 92.390625 84.609375 92.496094 84.652344 92.621094 84.652344 L 114.710938 84.652344 C 116.765625 84.652344 117.792969 85.535156 117.792969 87.296875 L 117.792969 89.125 L 100.839844 89.125 C 97.53125 89.125 95.019531 89.863281 93.300781 91.335938 C 91.585938 92.808594 90.722656 94.941406 90.722656 97.734375 L 90.722656 100.183594 C 90.722656 103.644531 91.675781 106.210938 93.589844 107.878906 C 95.503906 109.546875 98.078125 110.378906 101.320312 110.378906 L 115.195312 110.378906 C 118.40625 110.378906 121.621094 109.472656 123.550781 107.664062 C 125.480469 105.855469 126.4375 103.203125 126.4375 99.707031 L 126.4375 86.914062 C 126.4375 83.417969 125.476562 80.765625 123.550781 78.957031 C 121.625 77.144531 118.402344 76.238281 115.195312 76.238281 Z M 114.710938 101.964844 L 101.324219 101.964844 C 100.695312 101.960938 100.105469 101.800781 99.5625 101.484375 C 99.003906 101.164062 98.722656 100.601562 98.722656 99.800781 C 98.722656 98.292969 99.589844 97.539062 101.324219 97.539062 L 117.796875 97.539062 L 117.796875 99.320312 C 117.792969 101.085938 116.765625 101.964844 114.710938 101.964844 Z M 114.710938 101.964844 " fill-opacity="1" fill-rule="nonzero"/><path fill="#9482d9" d="M 184.910156 110.339844 L 207.542969 110.339844 C 207.667969 110.339844 207.773438 110.296875 207.863281 110.207031 C 207.953125 110.117188 207.996094 110.011719 207.996094 109.886719 L 207.996094 102.351562 C 207.996094 102.226562 207.953125 102.121094 207.863281 102.03125 C 207.773438 101.941406 207.667969 101.898438 207.542969 101.898438 L 185.398438 101.898438 C 183.339844 101.898438 182.308594 101.015625 182.308594 99.246094 L 182.308594 97.421875 L 199.308594 97.421875 C 202.625 97.421875 205.140625 96.679688 206.863281 95.203125 C 208.585938 93.722656 209.449219 91.585938 209.449219 88.789062 L 209.449219 86.332031 C 209.449219 82.863281 208.492188 80.289062 206.574219 78.617188 C 204.65625 76.945312 202.070312 76.109375 198.824219 76.109375 L 184.910156 76.109375 C 181.6875 76.109375 178.46875 77.015625 176.53125 78.835938 C 174.597656 80.65625 173.636719 83.308594 173.636719 86.8125 L 173.636719 99.636719 C 173.636719 103.140625 174.601562 105.800781 176.53125 107.617188 C 178.464844 109.429688 181.691406 110.339844 184.910156 110.339844 Z M 185.394531 84.546875 L 198.820312 84.546875 C 199.449219 84.550781 200.039062 84.710938 200.582031 85.03125 C 201.144531 85.351562 201.429688 85.914062 201.429688 86.71875 C 201.429688 88.226562 200.558594 88.984375 198.820312 88.984375 L 182.308594 88.984375 L 182.308594 87.203125 C 182.304688 85.433594 183.332031 84.546875 185.394531 84.546875 Z M 185.394531 84.546875 " fill-opacity="1" fill-rule="nonzero"/><path fill="#9482d9" d="M 247.90625 83.929688 C 246.328125 81.21875 244.179688 79.078125 241.460938 77.503906 C 238.765625 75.929688 235.316406 75.128906 232.160156 75.128906 C 229 75.117188 226.0625 75.90625 223.339844 77.503906 C 220.621094 79.078125 218.472656 81.21875 216.894531 83.929688 C 215.296875 86.648438 214.503906 89.582031 214.519531 92.734375 L 214.519531 109.886719 C 214.519531 110.011719 214.5625 110.121094 214.652344 110.207031 C 214.742188 110.296875 214.847656 110.339844 214.972656 110.339844 L 223.941406 110.339844 C 224.066406 110.339844 224.175781 110.296875 224.261719 110.207031 C 224.351562 110.117188 224.394531 110.011719 224.394531 109.886719 L 224.394531 92.734375 C 224.382812 91.347656 224.734375 90.0625 225.449219 88.871094 C 226.152344 87.6875 227.097656 86.742188 228.285156 86.039062 C 229.480469 85.328125 230.773438 84.976562 232.164062 84.992188 C 233.566406 84.992188 235.351562 85.34375 236.519531 86.042969 C 237.707031 86.746094 238.652344 87.6875 239.355469 88.875 C 240.066406 90.0625 240.417969 91.347656 240.410156 92.734375 L 240.410156 109.886719 C 240.410156 110.011719 240.457031 110.121094 240.542969 110.207031 C 240.632812 110.296875 240.738281 110.339844 240.863281 110.339844 L 249.835938 110.339844 C 249.960938 110.339844 250.066406 110.296875 250.15625 110.207031 C 250.242188 110.117188 250.289062 110.011719 250.289062 109.886719 L 250.289062 92.734375 C 250.300781 89.582031 249.503906 86.648438 247.90625 83.929688 Z M 247.90625 83.929688 " fill-opacity="1" fill-rule="nonzero"/><path fill="#9482d9" d="M 158.601562 76.109375 C 158.476562 76.109375 158.371094 76.15625 158.28125 76.242188 C 158.195312 76.332031 158.148438 76.4375 158.148438 76.5625 L 158.148438 92.332031 C 158.160156 93.773438 157.796875 95.113281 157.054688 96.351562 C 156.324219 97.582031 155.339844 98.5625 154.109375 99.289062 C 153.496094 99.648438 152.847656 99.921875 152.164062 100.109375 C 151.480469 100.292969 150.785156 100.386719 150.074219 100.386719 C 149.367188 100.386719 148.671875 100.292969 147.988281 100.109375 C 147.300781 99.921875 146.65625 99.648438 146.042969 99.289062 C 144.8125 98.5625 143.832031 97.582031 143.101562 96.351562 C 142.359375 95.113281 141.992188 93.773438 142 92.332031 L 142 76.5625 C 142 76.4375 141.957031 76.332031 141.867188 76.242188 C 141.78125 76.15625 141.671875 76.109375 141.546875 76.109375 L 132.691406 76.109375 C 132.566406 76.109375 132.457031 76.15625 132.371094 76.242188 C 132.28125 76.332031 132.238281 76.4375 132.238281 76.5625 L 132.238281 93.808594 C 132.238281 97.75 134.542969 101.636719 139.09375 105.34375 C 141.832031 107.613281 145.007812 109.574219 148.570312 111.1875 L 150.035156 111.765625 L 151.625 111.171875 C 154.421875 109.910156 157.054688 108.371094 159.53125 106.554688 C 165.101562 102.472656 167.925781 98.183594 167.925781 93.808594 L 167.925781 76.5625 C 167.925781 76.4375 167.882812 76.332031 167.792969 76.242188 C 167.707031 76.15625 167.597656 76.109375 167.472656 76.109375 Z M 158.601562 76.109375 " fill-opacity="1" fill-rule="nonzero"/><path fill="#9482d9" d="M 84.847656 76.257812 L 76.445312 76.257812 C 76.320312 76.257812 76.214844 76.300781 76.125 76.386719 C 76.039062 76.476562 75.992188 76.582031 75.992188 76.707031 L 75.992188 81.574219 C 76.003906 83.039062 75.632812 84.402344 74.878906 85.660156 C 74.132812 86.917969 73.132812 87.914062 71.875 88.660156 C 70.613281 89.414062 69.246094 89.789062 67.777344 89.777344 C 66.292969 89.777344 64.40625 89.398438 63.167969 88.660156 C 61.910156 87.914062 60.90625 86.917969 60.164062 85.660156 C 59.410156 84.402344 59.039062 83.039062 59.046875 81.574219 L 59.046875 76.710938 C 59.046875 76.585938 59.003906 76.480469 58.914062 76.390625 C 58.828125 76.304688 58.71875 76.257812 58.59375 76.257812 L 50.191406 76.257812 C 50.066406 76.257812 49.957031 76.304688 49.871094 76.390625 C 49.78125 76.480469 49.738281 76.585938 49.738281 76.710938 L 49.738281 109.921875 C 49.738281 110.046875 49.78125 110.152344 49.871094 110.242188 C 49.957031 110.332031 50.066406 110.375 50.191406 110.375 L 58.589844 110.375 C 58.714844 110.375 58.824219 110.332031 58.910156 110.242188 C 59 110.152344 59.042969 110.046875 59.042969 109.921875 L 59.042969 104.867188 C 59.035156 103.402344 59.40625 102.039062 60.160156 100.78125 C 60.902344 99.527344 61.90625 98.527344 63.164062 97.785156 C 64.425781 97.027344 65.792969 96.65625 67.265625 96.667969 C 68.75 96.667969 70.636719 97.042969 71.875 97.785156 C 73.132812 98.527344 74.132812 99.527344 74.878906 100.78125 C 75.632812 102.039062 76.003906 103.402344 75.996094 104.867188 L 75.996094 109.921875 C 75.996094 110.046875 76.039062 110.152344 76.128906 110.242188 C 76.214844 110.332031 76.324219 110.375 76.449219 110.375 L 84.851562 110.375 C 84.976562 110.375 85.085938 110.332031 85.171875 110.242188 C 85.261719 110.152344 85.304688 110.046875 85.304688 109.921875 L 85.304688 76.707031 C 85.304688 76.582031 85.261719 76.476562 85.171875 76.386719 C 85.082031 76.296875 84.972656 76.253906 84.847656 76.257812 Z M 84.847656 76.257812 " fill-opacity="1" fill-rule="nonzero"/></svg>