<svg xmlns="http://www.w3.org/2000/svg" xmlns:xlink="http://www.w3.org/1999/xlink" width="400" zoomAndPan="magnify" viewBox="0 0 300 187.499995" height="250" preserveAspectRatio="xMidYMid meet" version="1.0"><defs><clipPath id="6feedf40a7"><path d="M 3.074219 3.101562 L 71.402344 3.101562 L 71.402344 32.515625 L 3.074219 32.515625 Z M 3.074219 3.101562 " clip-rule="nonzero"/></clipPath><clipPath id="f9adb64e8a"><path d="M 35.929688 11.863281 C 49.542969 8.320312 61.964844 6.003906 70.949219 3.839844 C 71.382812 3.742188 71.289062 3.09375 70.839844 3.121094 C 59.140625 3.746094 24.160156 5.605469 24.160156 5.605469 C 4.046875 7.214844 0.359375 15.117188 4.730469 21.226562 L 12.636719 32.285156 C 12.867188 32.609375 13.378906 32.445312 13.382812 32.046875 C 13.457031 23.59375 18.578125 16.394531 35.933594 11.863281 Z M 35.929688 11.863281 " clip-rule="nonzero"/></clipPath><clipPath id="948678be25"><path d="M 0.0742188 0.101562 L 68.402344 0.101562 L 68.402344 29.515625 L 0.0742188 29.515625 Z M 0.0742188 0.101562 " clip-rule="nonzero"/></clipPath><clipPath id="95b1635b32"><path d="M 32.929688 8.863281 C 46.542969 5.320312 58.964844 3.003906 67.949219 0.839844 C 68.382812 0.742188 68.289062 0.09375 67.839844 0.121094 C 56.140625 0.746094 21.160156 2.605469 21.160156 2.605469 C 1.046875 4.214844 -2.640625 12.117188 1.730469 18.226562 L 9.636719 29.285156 C 9.867188 29.609375 10.378906 29.445312 10.382812 29.046875 C 10.457031 20.59375 15.578125 13.394531 32.933594 8.863281 Z M 32.929688 8.863281 " clip-rule="nonzero"/></clipPath><clipPath id="0c88533e10"><rect x="0" width="69" y="0" height="30"/></clipPath><clipPath id="473517a6ce"><path d="M 19.816406 4.460938 L 78.417969 4.460938 L 78.417969 56.5 L 19.816406 56.5 Z M 19.816406 4.460938 " clip-rule="nonzero"/></clipPath><clipPath id="ef6d7b4b4f"><path d="M 29.628906 56.222656 C 29.929688 56.667969 30.535156 56.515625 30.460938 55.921875 C 29.554688 50.203125 31.085938 35.171875 38.753906 27.769531 C 50.105469 16.804688 64.597656 12.488281 78.160156 5.265625 C 78.527344 5.066406 78.316406 4.511719 77.910156 4.613281 C 68.464844 6.980469 43.75 13.519531 35.417969 16.925781 C 25.734375 20.886719 12.765625 33.023438 24.730469 49.773438 L 29.625 56.226562 Z M 29.628906 56.222656 " clip-rule="nonzero"/></clipPath><clipPath id="988dfa4ec1"><path d="M 0.816406 0.480469 L 59.417969 0.480469 L 59.417969 52.5 L 0.816406 52.5 Z M 0.816406 0.480469 " clip-rule="nonzero"/></clipPath><clipPath id="0dc2a7c538"><path d="M 10.628906 52.222656 C 10.929688 52.667969 11.535156 52.515625 11.460938 51.921875 C 10.554688 46.203125 12.085938 31.171875 19.753906 23.769531 C 31.105469 12.804688 45.597656 8.488281 59.160156 1.265625 C 59.527344 1.066406 59.316406 0.511719 58.910156 0.613281 C 49.464844 2.980469 24.75 9.519531 16.417969 12.925781 C 6.734375 16.886719 -6.234375 29.023438 5.730469 45.773438 L 10.625 52.226562 Z M 10.628906 52.222656 " clip-rule="nonzero"/></clipPath><clipPath id="06cf752106"><rect x="0" width="60" y="0" height="53"/></clipPath><clipPath id="ac61d799e4"><path d="M 68.925781 25.511719 L 91.066406 25.511719 L 91.066406 30.523438 L 68.925781 30.523438 Z M 76.40625 30.523438 L 83.574219 30.523438 L 83.574219 50.894531 L 76.40625 50.894531 Z M 76.40625 30.523438 " clip-rule="nonzero"/></clipPath><clipPath id="8fb42bf336"><path d="M 0.925781 0.511719 L 23.066406 0.511719 L 23.066406 5.523438 L 0.925781 5.523438 Z M 8.40625 5.523438 L 15.574219 5.523438 L 15.574219 25.894531 L 8.40625 25.894531 Z M 8.40625 5.523438 " clip-rule="nonzero"/></clipPath><clipPath id="8749506aa0"><rect x="0" width="24" y="0" height="26"/></clipPath><clipPath id="48cf74b835"><path d="M 101.296875 25.511719 L 118.886719 25.511719 L 118.886719 30.449219 L 101.296875 30.449219 Z M 101.296875 30.449219 L 108.429688 30.449219 L 108.429688 35.195312 L 101.296875 35.195312 Z M 101.296875 35.195312 L 117.132812 35.195312 L 117.132812 40.121094 L 101.296875 40.121094 Z M 101.296875 40.121094 L 108.429688 40.121094 L 108.429688 45.75 L 101.296875 45.75 Z M 101.296875 45.75 L 118.886719 45.75 L 118.886719 50.894531 L 101.296875 50.894531 Z M 101.296875 45.75 " clip-rule="nonzero"/></clipPath><clipPath id="977ceaa987"><path d="M 0.296875 0.511719 L 17.886719 0.511719 L 17.886719 5.449219 L 0.296875 5.449219 Z M 0.296875 5.449219 L 7.429688 5.449219 L 7.429688 10.195312 L 0.296875 10.195312 Z M 0.296875 10.195312 L 16.132812 10.195312 L 16.132812 15.121094 L 0.296875 15.121094 Z M 0.296875 15.121094 L 7.429688 15.121094 L 7.429688 20.75 L 0.296875 20.75 Z M 0.296875 20.75 L 17.886719 20.75 L 17.886719 25.894531 L 0.296875 25.894531 Z M 0.296875 20.75 " clip-rule="nonzero"/></clipPath><clipPath id="3b45c85c73"><rect x="0" width="18" y="0" height="26"/></clipPath><clipPath id="8954929b9d"><path d="M 131.722656 25.511719 L 138.941406 25.511719 L 138.941406 45.890625 L 131.722656 45.890625 Z M 131.722656 45.890625 L 149.9375 45.890625 L 149.9375 50.894531 L 131.722656 50.894531 Z M 131.722656 45.890625 " clip-rule="nonzero"/></clipPath><clipPath id="d4cf511aab"><path d="M 0.722656 0.511719 L 7.941406 0.511719 L 7.941406 20.890625 L 0.722656 20.890625 Z M 0.722656 20.890625 L 18.9375 20.890625 L 18.9375 25.894531 L 0.722656 25.894531 Z M 0.722656 20.890625 " clip-rule="nonzero"/></clipPath><clipPath id="d1dd6498c5"><rect x="0" width="19" y="0" height="26"/></clipPath><clipPath id="681e976c85"><path d="M 158.789062 25.503906 L 181.988281 25.503906 L 181.988281 51.421875 L 158.789062 51.421875 Z M 158.789062 25.503906 " clip-rule="nonzero"/></clipPath><clipPath id="f2dbc2ffc4"><path d="M 174.546875 25.511719 L 174.546875 41.640625 C 174.546875 42.902344 174.546875 43.253906 174.46875 43.746094 C 174.246094 45.285156 172.75 46.171875 170.371094 46.207031 C 168.609375 46.179688 167.316406 45.664062 166.714844 44.738281 C 166.414062 44.261719 166.269531 43.414062 166.269531 42.054688 L 166.269531 25.511719 L 158.789062 25.511719 L 158.789062 43.007812 C 158.789062 45.441406 159.109375 46.523438 160.207031 47.90625 C 162.011719 50.167969 165.53125 51.355469 170.386719 51.355469 L 170.648438 51.355469 C 177.136719 51.355469 180.492188 48.820312 181.460938 46.449219 C 181.949219 45.300781 181.988281 44.753906 181.988281 42.433594 L 181.988281 25.503906 L 174.558594 25.503906 " clip-rule="nonzero"/></clipPath><clipPath id="e3cc204c01"><path d="M 0.789062 0.503906 L 23.988281 0.503906 L 23.988281 26.394531 L 0.789062 26.394531 Z M 0.789062 0.503906 " clip-rule="nonzero"/></clipPath><clipPath id="a114144fe9"><path d="M 16.546875 0.511719 L 16.546875 16.640625 C 16.546875 17.902344 16.546875 18.253906 16.46875 18.746094 C 16.246094 20.285156 14.75 21.171875 12.371094 21.207031 C 10.609375 21.179688 9.316406 20.664062 8.714844 19.738281 C 8.414062 19.261719 8.269531 18.414062 8.269531 17.054688 L 8.269531 0.511719 L 0.789062 0.511719 L 0.789062 18.007812 C 0.789062 20.441406 1.109375 21.523438 2.207031 22.90625 C 4.011719 25.167969 7.53125 26.355469 12.386719 26.355469 L 12.648438 26.355469 C 19.136719 26.355469 22.492188 23.820312 23.460938 21.449219 C 23.949219 20.300781 23.988281 19.753906 23.988281 17.433594 L 23.988281 0.503906 L 16.558594 0.503906 " clip-rule="nonzero"/></clipPath><clipPath id="aa843cd53c"><rect x="0" width="24" y="0" height="27"/></clipPath><clipPath id="330efb5a37"><path d="M 76 69 L 97.722656 69 L 97.722656 94.523438 L 76 94.523438 Z M 76 69 " clip-rule="nonzero"/></clipPath><clipPath id="c20df2d977"><path d="M 85.070312 91.109375 C 90.667969 91.109375 93.695312 87.6875 93.695312 81.761719 C 93.695312 75.835938 90.667969 72.425781 85.070312 72.425781 L 79.867188 72.425781 L 79.867188 91.109375 Z M 76.058594 69.074219 L 85.109375 69.074219 C 93.054688 69.074219 97.691406 73.921875 97.691406 81.761719 C 97.691406 89.601562 93.054688 94.449219 85.109375 94.449219 L 76.058594 94.449219 L 76.058594 69.0625 Z M 76.058594 69.074219 " clip-rule="nonzero"/></clipPath><clipPath id="0b6f66508b"><path d="M 0 0 L 21.722656 0 L 21.722656 25.480469 L 0 25.480469 Z M 0 0 " clip-rule="nonzero"/></clipPath><clipPath id="b2b05ec603"><path d="M 9.070312 22.109375 C 14.667969 22.109375 17.695312 18.6875 17.695312 12.761719 C 17.695312 6.835938 14.667969 3.425781 9.070312 3.425781 L 3.867188 3.425781 L 3.867188 22.109375 Z M 0.0585938 0.0742188 L 9.109375 0.0742188 C 17.054688 0.0742188 21.691406 4.921875 21.691406 12.761719 C 21.691406 20.601562 17.054688 25.449219 9.109375 25.449219 L 0.0585938 25.449219 L 0.0585938 0.0625 Z M 0.0585938 0.0742188 " clip-rule="nonzero"/></clipPath><clipPath id="d39f40de72"><rect x="0" width="22" y="0" height="26"/></clipPath><clipPath id="0707cb6e8a"><path d="M 100.351562 69.265625 L 104.875 69.265625 L 104.875 94.523438 L 100.351562 94.523438 Z M 100.351562 69.265625 " clip-rule="nonzero"/></clipPath><clipPath id="c9c7939b4e"><path d="M 100.828125 76.054688 L 104.394531 76.054688 L 104.394531 94.457031 L 100.828125 94.457031 Z M 100.441406 71.464844 C 100.441406 70.285156 101.402344 69.289062 102.617188 69.289062 C 103.828125 69.289062 104.792969 70.25 104.792969 71.464844 C 104.792969 72.675781 103.828125 73.640625 102.617188 73.640625 C 101.402344 73.640625 100.441406 72.675781 100.441406 71.464844 " clip-rule="nonzero"/></clipPath><clipPath id="6919b92fad"><path d="M 0.351562 0.265625 L 4.863281 0.265625 L 4.863281 25.480469 L 0.351562 25.480469 Z M 0.351562 0.265625 " clip-rule="nonzero"/></clipPath><clipPath id="fb0e1e88a9"><path d="M 0.828125 7.054688 L 4.394531 7.054688 L 4.394531 25.457031 L 0.828125 25.457031 Z M 0.441406 2.464844 C 0.441406 1.285156 1.402344 0.289062 2.617188 0.289062 C 3.828125 0.289062 4.792969 1.25 4.792969 2.464844 C 4.792969 3.675781 3.828125 4.640625 2.617188 4.640625 C 1.402344 4.640625 0.441406 3.675781 0.441406 2.464844 " clip-rule="nonzero"/></clipPath><clipPath id="5000dcf3e5"><rect x="0" width="5" y="0" height="26"/></clipPath><clipPath id="c708e1d42b"><path d="M 107.503906 75.542969 L 125.609375 75.542969 L 125.609375 101.972656 L 107.503906 101.972656 Z M 107.503906 75.542969 " clip-rule="nonzero"/></clipPath><clipPath id="638c90bb14"><path d="M 122.007812 85.152344 C 122.007812 81.050781 119.898438 78.703125 116.625 78.703125 C 113.347656 78.703125 111.242188 81.195312 111.242188 85.152344 C 111.242188 89.105469 113.347656 91.601562 116.625 91.601562 C 119.898438 91.601562 122.007812 89.253906 122.007812 85.152344 M 108.574219 95.742188 L 112.136719 95.742188 C 112.417969 97.917969 114.027344 98.992188 116.734375 98.992188 C 120.085938 98.992188 121.902344 97.238281 121.902344 93.859375 L 121.902344 91.824219 C 120.578125 93.640625 118.589844 94.679688 115.984375 94.679688 C 110.886719 94.679688 107.535156 90.902344 107.535156 85.160156 C 107.535156 79.417969 110.84375 75.640625 115.945312 75.640625 C 118.652344 75.640625 120.726562 76.777344 122.042969 78.675781 L 122.042969 76.070312 L 125.464844 76.070312 L 125.464844 93.789062 C 125.464844 98.597656 122.578125 101.882812 116.691406 101.882812 C 111.699219 101.882812 108.921875 99.421875 108.558594 95.75 Z M 108.574219 95.742188 " clip-rule="nonzero"/></clipPath><clipPath id="3b51ef92cd"><path d="M 0.503906 0.570312 L 18.609375 0.570312 L 18.609375 26.898438 L 0.503906 26.898438 Z M 0.503906 0.570312 " clip-rule="nonzero"/></clipPath><clipPath id="a25d69caaf"><path d="M 15.007812 10.152344 C 15.007812 6.050781 12.898438 3.703125 9.625 3.703125 C 6.347656 3.703125 4.242188 6.195312 4.242188 10.152344 C 4.242188 14.105469 6.347656 16.601562 9.625 16.601562 C 12.898438 16.601562 15.007812 14.253906 15.007812 10.152344 M 1.574219 20.742188 L 5.136719 20.742188 C 5.417969 22.917969 7.027344 23.992188 9.734375 23.992188 C 13.085938 23.992188 14.902344 22.238281 14.902344 18.859375 L 14.902344 16.824219 C 13.578125 18.640625 11.589844 19.679688 8.984375 19.679688 C 3.886719 19.679688 0.535156 15.902344 0.535156 10.160156 C 0.535156 4.417969 3.84375 0.640625 8.945312 0.640625 C 11.652344 0.640625 13.726562 1.777344 15.042969 3.675781 L 15.042969 1.070312 L 18.464844 1.070312 L 18.464844 18.789062 C 18.464844 23.597656 15.578125 26.882812 9.691406 26.882812 C 4.699219 26.882812 1.921875 24.421875 1.558594 20.75 Z M 1.574219 20.742188 " clip-rule="nonzero"/></clipPath><clipPath id="61a4902f9b"><rect x="0" width="19" y="0" height="27"/></clipPath><clipPath id="10ed447ef4"><path d="M 129 69.265625 L 133.492188 69.265625 L 133.492188 94.523438 L 129 94.523438 Z M 129 69.265625 " clip-rule="nonzero"/></clipPath><clipPath id="fbb598074a"><path d="M 129.496094 76.054688 L 133.0625 76.054688 L 133.0625 94.457031 L 129.496094 94.457031 Z M 129.109375 71.464844 C 129.109375 70.285156 130.070312 69.289062 131.285156 69.289062 C 132.496094 69.289062 133.460938 70.25 133.460938 71.464844 C 133.460938 72.675781 132.496094 73.640625 131.285156 73.640625 C 130.070312 73.640625 129.109375 72.675781 129.109375 71.464844 " clip-rule="nonzero"/></clipPath><clipPath id="55b0c0a221"><path d="M 0.0390625 0.265625 L 4.492188 0.265625 L 4.492188 25.480469 L 0.0390625 25.480469 Z M 0.0390625 0.265625 " clip-rule="nonzero"/></clipPath><clipPath id="d118f38460"><path d="M 0.496094 7.054688 L 4.0625 7.054688 L 4.0625 25.457031 L 0.496094 25.457031 Z M 0.109375 2.464844 C 0.109375 1.285156 1.070312 0.289062 2.285156 0.289062 C 3.496094 0.289062 4.460938 1.25 4.460938 2.464844 C 4.460938 3.675781 3.496094 4.640625 2.285156 4.640625 C 1.070312 4.640625 0.109375 3.675781 0.109375 2.464844 " clip-rule="nonzero"/></clipPath><clipPath id="3c1a2cc6ce"><rect x="0" width="5" y="0" height="26"/></clipPath><clipPath id="c93582fa65"><path d="M 135.539062 70.726562 L 145.902344 70.726562 L 145.902344 94.671875 L 135.539062 94.671875 Z M 135.539062 70.726562 " clip-rule="nonzero"/></clipPath><clipPath id="9c76678ec0"><path d="M 138.523438 90.359375 L 138.523438 78.984375 L 135.558594 78.984375 L 135.558594 76.054688 L 138.523438 76.054688 L 138.523438 70.785156 L 142.089844 70.785156 L 142.089844 76.054688 L 145.800781 76.054688 L 145.800781 78.980469 L 142.089844 78.980469 L 142.089844 90.035156 C 142.089844 91.105469 142.621094 91.609375 144.195312 91.609375 L 145.796875 91.609375 L 145.796875 94.46875 C 145.007812 94.539062 144.261719 94.578125 143.621094 94.578125 C 140.308594 94.578125 138.523438 93.445312 138.523438 90.375 Z M 138.523438 90.359375 " clip-rule="nonzero"/></clipPath><clipPath id="d7db4c8a1a"><path d="M 0.539062 0.78125 L 10.902344 0.78125 L 10.902344 24.671875 L 0.539062 24.671875 Z M 0.539062 0.78125 " clip-rule="nonzero"/></clipPath><clipPath id="7d8d989672"><path d="M 3.523438 20.359375 L 3.523438 8.984375 L 0.558594 8.984375 L 0.558594 6.054688 L 3.523438 6.054688 L 3.523438 0.785156 L 7.089844 0.785156 L 7.089844 6.054688 L 10.800781 6.054688 L 10.800781 8.980469 L 7.089844 8.980469 L 7.089844 20.035156 C 7.089844 21.105469 7.621094 21.609375 9.195312 21.609375 L 10.796875 21.609375 L 10.796875 24.46875 C 10.007812 24.539062 9.261719 24.578125 8.621094 24.578125 C 5.308594 24.578125 3.523438 23.445312 3.523438 20.375 Z M 3.523438 20.359375 " clip-rule="nonzero"/></clipPath><clipPath id="7bdf9adcff"><rect x="0" width="11" y="0" height="25"/></clipPath><clipPath id="79bf05cf41"><path d="M 147.363281 75.542969 L 165.46875 75.542969 L 165.46875 94.964844 L 147.363281 94.964844 Z M 147.363281 75.542969 " clip-rule="nonzero"/></clipPath><clipPath id="75b46f9526"><path d="M 154.574219 92.105469 C 157.175781 92.105469 159.851562 90.652344 159.851562 87.191406 L 159.851562 85.269531 C 159.316406 85.699219 158.570312 85.914062 157.566406 86.019531 L 155 86.300781 C 152.035156 86.660156 151.15625 87.691406 151.15625 89.328125 C 151.15625 90.96875 152.265625 92.105469 154.578125 92.105469 M 160.027344 91.960938 C 158.78125 93.886719 156.71875 94.886719 154.035156 94.886719 C 150.082031 94.886719 147.476562 92.960938 147.476562 89.425781 C 147.476562 86.460938 149.253906 84.214844 154.394531 83.722656 L 157.105469 83.441406 C 158.882812 83.226562 159.855469 82.625 159.855469 81.128906 C 159.855469 79.417969 158.960938 78.488281 156.074219 78.488281 C 153.1875 78.488281 151.972656 79.304688 151.800781 81.800781 L 148.273438 81.800781 C 148.488281 78.085938 150.554688 75.628906 156.082031 75.628906 C 161.609375 75.628906 163.359375 77.84375 163.359375 81.050781 L 163.359375 90.785156 C 163.359375 91.359375 163.640625 91.707031 164.355469 91.707031 L 165.355469 91.707031 L 165.355469 94.457031 C 164.820312 94.523438 164.179688 94.5625 163.609375 94.5625 C 161.324219 94.5625 160.296875 93.746094 160.042969 91.957031 Z M 160.027344 91.960938 " clip-rule="nonzero"/></clipPath><clipPath id="5c326ba17a"><path d="M 0.46875 0.570312 L 18.421875 0.570312 L 18.421875 19.957031 L 0.46875 19.957031 Z M 0.46875 0.570312 " clip-rule="nonzero"/></clipPath><clipPath id="ee3a49af3a"><path d="M 7.574219 17.105469 C 10.175781 17.105469 12.851562 15.652344 12.851562 12.191406 L 12.851562 10.269531 C 12.316406 10.699219 11.570312 10.914062 10.566406 11.019531 L 8 11.300781 C 5.035156 11.660156 4.15625 12.691406 4.15625 14.328125 C 4.15625 15.96875 5.265625 17.105469 7.578125 17.105469 M 13.027344 16.960938 C 11.78125 18.886719 9.71875 19.886719 7.035156 19.886719 C 3.082031 19.886719 0.476562 17.960938 0.476562 14.425781 C 0.476562 11.460938 2.253906 9.214844 7.394531 8.722656 L 10.105469 8.441406 C 11.882812 8.226562 12.855469 7.625 12.855469 6.128906 C 12.855469 4.417969 11.960938 3.488281 9.074219 3.488281 C 6.1875 3.488281 4.972656 4.304688 4.800781 6.800781 L 1.273438 6.800781 C 1.488281 3.085938 3.554688 0.628906 9.082031 0.628906 C 14.609375 0.628906 16.359375 2.84375 16.359375 6.050781 L 16.359375 15.785156 C 16.359375 16.359375 16.640625 16.707031 17.355469 16.707031 L 18.355469 16.707031 L 18.355469 19.457031 C 17.820312 19.523438 17.179688 19.5625 16.609375 19.5625 C 14.324219 19.5625 13.296875 18.746094 13.042969 16.957031 Z M 13.027344 16.960938 " clip-rule="nonzero"/></clipPath><clipPath id="19f145da07"><rect x="0" width="19" y="0" height="20"/></clipPath><clipPath id="1b0c74801b"><path d="M 167.511719 69 L 174.230469 69 L 174.230469 94.671875 L 167.511719 94.671875 Z M 167.511719 69 " clip-rule="nonzero"/></clipPath><clipPath id="cc2e3afcd1"><path d="M 167.539062 90.359375 L 167.539062 69.074219 L 171.105469 69.074219 L 171.105469 90.035156 C 171.105469 91.105469 171.574219 91.609375 172.886719 91.609375 L 174.207031 91.609375 L 174.207031 94.46875 C 173.503906 94.539062 172.78125 94.578125 172.214844 94.578125 C 169.1875 94.578125 167.546875 93.445312 167.546875 90.375 Z M 167.539062 90.359375 " clip-rule="nonzero"/></clipPath><clipPath id="1b4e494acd"><path d="M 0.511719 0 L 7.230469 0 L 7.230469 25.671875 L 0.511719 25.671875 Z M 0.511719 0 " clip-rule="nonzero"/></clipPath><clipPath id="df1bd1e977"><path d="M 0.539062 21.359375 L 0.539062 0.0742188 L 4.105469 0.0742188 L 4.105469 21.035156 C 4.105469 22.105469 4.574219 22.609375 5.886719 22.609375 L 7.207031 22.609375 L 7.207031 25.46875 C 6.503906 25.539062 5.78125 25.578125 5.214844 25.578125 C 2.1875 25.578125 0.546875 24.445312 0.546875 21.375 Z M 0.539062 21.359375 " clip-rule="nonzero"/></clipPath><clipPath id="4f799cf166"><rect x="0" width="8" y="0" height="26"/></clipPath><clipPath id="9cf0a9b0c3"><path d="M 192.84375 24.6875 L 216.257812 24.6875 L 216.257812 51.515625 L 192.84375 51.515625 Z M 192.84375 24.6875 " clip-rule="nonzero"/></clipPath><clipPath id="da909cf157"><path d="M 208.035156 35.1875 C 203.167969 34.089844 201.464844 33.964844 201.464844 32.03125 C 201.464844 30.234375 203.875 29.667969 205.265625 29.667969 C 207.519531 29.667969 210.164062 30.191406 212.855469 31.582031 L 214.816406 26.910156 C 212.058594 25.394531 208.5 24.773438 205.078125 24.773438 C 198.367188 24.773438 193.859375 27.492188 193.675781 32.804688 C 193.484375 37.644531 197.414062 39.460938 201.042969 40.210938 C 204.53125 40.929688 208.066406 41.550781 208.144531 43.621094 C 208.210938 45.535156 206.492188 46.351562 203.246094 46.351562 C 200.242188 46.351562 197.449219 45.390625 194.585938 44.195312 L 192.925781 49.261719 C 196.203125 50.664062 199.53125 51.429688 202.972656 51.429688 C 207.742188 51.429688 211.21875 50.691406 213.785156 48.28125 C 215.566406 46.632812 216.144531 44.636719 216.144531 42.734375 C 216.144531 38.722656 213.648438 36.460938 208.042969 35.195312 " clip-rule="nonzero"/></clipPath><clipPath id="19d5a54199"><path d="M 0.84375 0.6875 L 24.164062 0.6875 L 24.164062 27.515625 L 0.84375 27.515625 Z M 0.84375 0.6875 " clip-rule="nonzero"/></clipPath><clipPath id="45fc4a293e"><path d="M 16.035156 11.1875 C 11.167969 10.089844 9.464844 9.964844 9.464844 8.03125 C 9.464844 6.234375 11.875 5.667969 13.265625 5.667969 C 15.519531 5.667969 18.164062 6.191406 20.855469 7.582031 L 22.816406 2.910156 C 20.058594 1.394531 16.5 0.773438 13.078125 0.773438 C 6.367188 0.773438 1.859375 3.492188 1.675781 8.804688 C 1.484375 13.644531 5.414062 15.460938 9.042969 16.210938 C 12.53125 16.929688 16.066406 17.550781 16.144531 19.621094 C 16.210938 21.535156 14.492188 22.351562 11.246094 22.351562 C 8.242188 22.351562 5.449219 21.390625 2.585938 20.195312 L 0.925781 25.261719 C 4.203125 26.664062 7.53125 27.429688 10.972656 27.429688 C 15.742188 27.429688 19.21875 26.691406 21.785156 24.28125 C 23.566406 22.632812 24.144531 20.636719 24.144531 18.734375 C 24.144531 14.722656 21.648438 12.460938 16.042969 11.195312 " clip-rule="nonzero"/></clipPath><clipPath id="0ff6bae0ff"><rect x="0" width="25" y="0" height="28"/></clipPath><clipPath id="2457d3c2b4"><path d="M 217.597656 25.421875 L 222.964844 25.421875 L 222.964844 30.90625 L 217.597656 30.90625 Z M 217.597656 25.421875 " clip-rule="nonzero"/></clipPath><clipPath id="4e0f37dd3a"><path d="M 219.710938 27.972656 L 220.21875 27.972656 C 220.636719 27.972656 221.035156 27.953125 221.035156 27.464844 C 221.035156 27.054688 220.683594 26.992188 220.355469 26.992188 L 219.71875 26.992188 L 219.71875 27.972656 Z M 219.238281 26.597656 L 220.429688 26.597656 C 221.160156 26.597656 221.507812 26.890625 221.507812 27.484375 C 221.507812 28.035156 221.15625 28.273438 220.691406 28.316406 L 221.578125 29.675781 L 221.0625 29.675781 L 220.226562 28.355469 L 219.71875 28.355469 L 219.71875 29.675781 L 219.246094 29.675781 L 219.246094 26.597656 Z M 220.265625 30.398438 C 221.488281 30.398438 222.433594 29.425781 222.433594 28.136719 C 222.433594 26.84375 221.488281 25.902344 220.265625 25.902344 C 219.042969 25.902344 218.089844 26.871094 218.089844 28.136719 C 218.089844 29.398438 219.035156 30.398438 220.265625 30.398438 M 220.265625 25.511719 C 221.703125 25.511719 222.90625 26.648438 222.90625 28.136719 C 222.90625 29.621094 221.703125 30.789062 220.265625 30.789062 C 218.832031 30.789062 217.601562 29.65625 217.601562 28.136719 C 217.601562 26.617188 218.816406 25.511719 220.265625 25.511719 " clip-rule="nonzero"/></clipPath><clipPath id="a6ebca98ec"><path d="M 0.601562 0.421875 L 5.964844 0.421875 L 5.964844 5.808594 L 0.601562 5.808594 Z M 0.601562 0.421875 " clip-rule="nonzero"/></clipPath><clipPath id="250057f78a"><path d="M 2.710938 2.972656 L 3.21875 2.972656 C 3.636719 2.972656 4.035156 2.953125 4.035156 2.464844 C 4.035156 2.054688 3.683594 1.992188 3.355469 1.992188 L 2.71875 1.992188 L 2.71875 2.972656 Z M 2.238281 1.597656 L 3.429688 1.597656 C 4.160156 1.597656 4.507812 1.890625 4.507812 2.484375 C 4.507812 3.035156 4.15625 3.273438 3.691406 3.316406 L 4.578125 4.675781 L 4.0625 4.675781 L 3.226562 3.355469 L 2.71875 3.355469 L 2.71875 4.675781 L 2.246094 4.675781 L 2.246094 1.597656 Z M 3.265625 5.398438 C 4.488281 5.398438 5.433594 4.425781 5.433594 3.136719 C 5.433594 1.84375 4.488281 0.902344 3.265625 0.902344 C 2.042969 0.902344 1.089844 1.871094 1.089844 3.136719 C 1.089844 4.398438 2.035156 5.398438 3.265625 5.398438 M 3.265625 0.511719 C 4.703125 0.511719 5.90625 1.648438 5.90625 3.136719 C 5.90625 4.621094 4.703125 5.789062 3.265625 5.789062 C 1.832031 5.789062 0.601562 4.65625 0.601562 3.136719 C 0.601562 1.617188 1.816406 0.511719 3.265625 0.511719 " clip-rule="nonzero"/></clipPath><clipPath id="da05afd259"><rect x="0" width="6" y="0" height="6"/></clipPath><clipPath id="29b1a61065"><rect x="0" width="226" y="0" height="105"/></clipPath></defs><g transform="matrix(1, 0, 0, 1, 37, 41)"><g clip-path="url(#29b1a61065)"><g clip-path="url(#6feedf40a7)"><g clip-path="url(#f9adb64e8a)"><g transform="matrix(1, 0, 0, 1, 3, 3)"><g clip-path="url(#0c88533e10)"><g clip-path="url(#948678be25)"><g clip-path="url(#95b1635b32)"><rect x="-149.2" width="518.4" fill="#66cc00" y="-112.249998" height="323.999991" fill-opacity="1"/></g></g></g></g></g></g><g clip-path="url(#473517a6ce)"><g clip-path="url(#ef6d7b4b4f)"><g transform="matrix(1, 0, 0, 1, 19, 4)"><g clip-path="url(#06cf752106)"><g clip-path="url(#988dfa4ec1)"><g clip-path="url(#0dc2a7c538)"><rect x="-165.2" width="518.4" fill="#66cc00" y="-113.249998" height="323.999991" fill-opacity="1"/></g></g></g></g></g></g><g clip-path="url(#ac61d799e4)"><g transform="matrix(1, 0, 0, 1, 68, 25)"><g clip-path="url(#8749506aa0)"><g clip-path="url(#8fb42bf336)"><rect x="-214.2" width="518.4" fill="#4b286d" y="-134.249998" height="323.999991" fill-opacity="1"/></g></g></g></g><g clip-path="url(#48cf74b835)"><g transform="matrix(1, 0, 0, 1, 101, 25)"><g clip-path="url(#3b45c85c73)"><g clip-path="url(#977ceaa987)"><path fill="#4b286d" d="M 0.296875 0.511719 L 17.890625 0.511719 L 17.890625 25.871094 L 0.296875 25.871094 Z M 0.296875 0.511719 " fill-opacity="1" fill-rule="nonzero"/></g></g></g></g><g clip-path="url(#8954929b9d)"><g transform="matrix(1, 0, 0, 1, 131, 25)"><g clip-path="url(#d1dd6498c5)"><g clip-path="url(#d4cf511aab)"><path fill="#4b286d" d="M 0.722656 0.511719 L 18.9375 0.511719 L 18.9375 25.914062 L 0.722656 25.914062 Z M 0.722656 0.511719 " fill-opacity="1" fill-rule="nonzero"/></g></g></g></g><g clip-path="url(#681e976c85)"><g clip-path="url(#f2dbc2ffc4)"><g transform="matrix(1, 0, 0, 1, 158, 25)"><g clip-path="url(#aa843cd53c)"><g clip-path="url(#e3cc204c01)"><g clip-path="url(#a114144fe9)"><path fill="#4b286d" d="M 0.789062 0.503906 L 23.988281 0.503906 L 23.988281 26.332031 L 0.789062 26.332031 Z M 0.789062 0.503906 " fill-opacity="1" fill-rule="nonzero"/></g></g></g></g></g></g><g clip-path="url(#330efb5a37)"><g clip-path="url(#c20df2d977)"><g transform="matrix(1, 0, 0, 1, 76, 69)"><g clip-path="url(#d39f40de72)"><g clip-path="url(#0b6f66508b)"><g clip-path="url(#b2b05ec603)"><rect x="-222.2" width="518.4" fill="#4b286d" y="-178.249998" height="323.999991" fill-opacity="1"/></g></g></g></g></g></g><g clip-path="url(#0707cb6e8a)"><g clip-path="url(#c9c7939b4e)"><g transform="matrix(1, 0, 0, 1, 100, 69)"><g clip-path="url(#5000dcf3e5)"><g clip-path="url(#6919b92fad)"><g clip-path="url(#fb0e1e88a9)"><rect x="-246.2" width="518.4" fill="#4b286d" y="-178.249998" height="323.999991" fill-opacity="1"/></g></g></g></g></g></g><g clip-path="url(#c708e1d42b)"><g clip-path="url(#638c90bb14)"><g transform="matrix(1, 0, 0, 1, 107, 75)"><g clip-path="url(#61a4902f9b)"><g clip-path="url(#3b51ef92cd)"><g clip-path="url(#a25d69caaf)"><rect x="-253.2" width="518.4" fill="#4b286d" y="-184.249998" height="323.999991" fill-opacity="1"/></g></g></g></g></g></g><g clip-path="url(#10ed447ef4)"><g clip-path="url(#fbb598074a)"><g transform="matrix(1, 0, 0, 1, 129, 69)"><g clip-path="url(#3c1a2cc6ce)"><g clip-path="url(#55b0c0a221)"><g clip-path="url(#d118f38460)"><rect x="-275.2" width="518.4" fill="#4b286d" y="-178.249998" height="323.999991" fill-opacity="1"/></g></g></g></g></g></g><g clip-path="url(#c93582fa65)"><g clip-path="url(#9c76678ec0)"><g transform="matrix(1, 0, 0, 1, 135, 70)"><g clip-path="url(#7bdf9adcff)"><g clip-path="url(#d7db4c8a1a)"><g clip-path="url(#7d8d989672)"><rect x="-281.2" width="518.4" fill="#4b286d" y="-179.249998" height="323.999991" fill-opacity="1"/></g></g></g></g></g></g><g clip-path="url(#79bf05cf41)"><g clip-path="url(#75b46f9526)"><g transform="matrix(1, 0, 0, 1, 147, 75)"><g clip-path="url(#19f145da07)"><g clip-path="url(#5c326ba17a)"><g clip-path="url(#ee3a49af3a)"><rect x="-293.2" width="518.4" fill="#4b286d" y="-184.249998" height="323.999991" fill-opacity="1"/></g></g></g></g></g></g><g clip-path="url(#1b0c74801b)"><g clip-path="url(#cc2e3afcd1)"><g transform="matrix(1, 0, 0, 1, 167, 69)"><g clip-path="url(#4f799cf166)"><g clip-path="url(#1b4e494acd)"><g clip-path="url(#df1bd1e977)"><rect x="-313.2" width="518.4" fill="#4b286d" y="-178.249998" height="323.999991" fill-opacity="1"/></g></g></g></g></g></g><g clip-path="url(#9cf0a9b0c3)"><g clip-path="url(#da909cf157)"><g transform="matrix(1, 0, 0, 1, 192, 24)"><g clip-path="url(#0ff6bae0ff)"><g clip-path="url(#19d5a54199)"><g clip-path="url(#45fc4a293e)"><rect x="-338.2" width="518.4" fill="#4b286d" y="-133.249998" height="323.999991" fill-opacity="1"/></g></g></g></g></g></g><g clip-path="url(#2457d3c2b4)"><g clip-path="url(#4e0f37dd3a)"><g transform="matrix(1, 0, 0, 1, 217, 25)"><g clip-path="url(#da05afd259)"><g clip-path="url(#a6ebca98ec)"><g clip-path="url(#250057f78a)"><rect x="-363.2" width="518.4" fill="#4b286d" y="-134.249998" height="323.999991" fill-opacity="1"/></g></g></g></g></g></g></g></g></svg>